<svg xmlns="http://www.w3.org/2000/svg" xmlns:xlink="http://www.w3.org/1999/xlink" width="500" zoomAndPan="magnify" viewBox="0 0 375 374.999991" height="500" preserveAspectRatio="xMidYMid meet" version="1.0"><defs><clipPath id="ba90c25a19"><path d="M 7.359375 7.359375 L 367.359375 7.359375 L 367.359375 367.359375 L 7.359375 367.359375 Z M 7.359375 7.359375 " clip-rule="nonzero"/></clipPath></defs><path fill="#000000" d="M 302.671875 72.042969 C 271.878906 41.246094 230.863281 24.300781 187.289062 24.300781 C 143.71875 24.300781 102.835938 41.246094 72.042969 72.042969 C 41.246094 102.835938 24.300781 143.855469 24.300781 187.425781 C 24.300781 230.996094 41.246094 272.011719 72.042969 302.808594 C 102.835938 333.601562 143.855469 350.546875 187.425781 350.546875 C 230.996094 350.546875 272.011719 333.601562 302.808594 302.808594 C 333.601562 272.011719 350.546875 230.996094 350.546875 187.425781 C 350.546875 143.855469 333.46875 102.835938 302.671875 72.042969 Z M 302.671875 72.042969 " fill-opacity="1" fill-rule="nonzero"/><g clip-path="url(#ba90c25a19)"><path fill="#000000" d="M 187.289062 7.359375 C 87.910156 7.359375 7.359375 87.910156 7.359375 187.289062 C 7.359375 286.671875 87.910156 367.222656 187.289062 367.222656 C 286.671875 367.222656 367.222656 286.671875 367.222656 187.289062 C 367.222656 87.910156 286.804688 7.359375 187.289062 7.359375 Z M 187.289062 357.136719 C 93.558594 357.136719 17.445312 281.15625 17.445312 187.289062 C 17.445312 93.425781 93.558594 17.578125 187.289062 17.578125 C 281.023438 17.578125 357.136719 93.558594 357.136719 187.425781 C 357.136719 281.292969 281.15625 357.136719 187.289062 357.136719 Z M 187.289062 357.136719 " fill-opacity="1" fill-rule="nonzero"/></g><path fill="#fffdfa" d="M 258.738281 172.261719 C 257.722656 171.675781 256.882812 170.230469 256.882812 169.050781 L 256.882812 127.761719 C 256.882812 126.589844 256.054688 125.148438 255.039062 124.5625 L 211.875 99.640625 C 210.859375 99.054688 209.195312 99.054688 208.175781 99.640625 L 172.417969 120.285156 C 171.40625 120.871094 169.738281 120.871094 168.722656 120.285156 L 132.960938 99.640625 C 131.949219 99.058594 130.28125 99.058594 129.261719 99.640625 L 86.097656 124.5625 C 85.085938 125.148438 84.25 126.589844 84.25 127.761719 L 84.25 177.605469 C 84.25 178.78125 85.082031 180.226562 86.097656 180.8125 L 121.859375 201.457031 C 122.878906 202.039062 123.714844 203.484375 123.714844 204.660156 L 123.714844 245.945312 C 123.714844 247.117188 124.542969 248.5625 125.5625 249.148438 L 168.722656 274.070312 C 169.742188 274.65625 171.40625 274.65625 172.421875 274.070312 L 208.183594 253.425781 C 209.199219 252.84375 210.863281 252.84375 211.882812 253.425781 L 247.640625 274.070312 C 248.652344 274.65625 250.320312 274.65625 251.339844 274.070312 L 294.496094 249.148438 C 295.515625 248.5625 296.347656 247.117188 296.347656 245.945312 L 296.347656 196.109375 C 296.347656 194.933594 295.515625 193.488281 294.496094 192.902344 Z M 211.882812 188.628906 C 210.863281 189.214844 209.199219 189.214844 208.183594 188.628906 L 187.238281 176.535156 C 186.226562 175.949219 186.226562 174.984375 187.238281 174.398438 L 208.191406 162.296875 C 209.207031 161.710938 210.871094 161.710938 211.890625 162.296875 L 232.828125 174.394531 C 233.839844 174.984375 233.839844 175.945312 232.828125 176.53125 Z M 168.722656 185.082031 C 169.742188 184.496094 171.40625 184.496094 172.421875 185.089844 L 193.367188 197.175781 C 194.382812 197.765625 194.382812 198.726562 193.367188 199.3125 L 172.410156 211.414062 C 171.398438 212 169.730469 212 168.707031 211.414062 L 147.777344 199.316406 C 146.757812 198.730469 146.757812 197.769531 147.777344 197.179688 Z M 129.265625 116.746094 C 130.28125 116.160156 131.953125 116.160156 132.960938 116.746094 L 153.910156 128.835938 C 154.921875 129.421875 154.921875 130.386719 153.910156 130.972656 L 132.957031 143.070312 C 131.941406 143.65625 130.273438 143.65625 129.257812 143.070312 L 108.320312 130.976562 C 107.304688 130.390625 107.304688 129.425781 108.320312 128.839844 Z M 99.0625 144.875 C 99.0625 143.699219 99.894531 143.21875 100.917969 143.808594 L 129.253906 160.175781 C 130.273438 160.765625 131.9375 160.765625 132.953125 160.179688 L 208.175781 116.746094 C 209.199219 116.160156 210.863281 116.160156 211.875 116.746094 L 240.234375 133.113281 C 241.242188 133.695312 242.078125 135.140625 242.078125 136.316406 L 242.078125 160.496094 C 242.078125 161.667969 241.246094 162.152344 240.234375 161.5625 L 211.890625 145.191406 C 210.871094 144.605469 209.207031 144.605469 208.191406 145.1875 L 132.960938 188.628906 C 131.953125 189.214844 130.28125 189.214844 129.265625 188.628906 L 100.917969 172.261719 C 99.898438 171.675781 99.0625 170.230469 99.0625 169.054688 Z M 140.375 240.601562 C 139.359375 240.015625 138.527344 238.574219 138.527344 237.394531 L 138.527344 213.214844 C 138.527344 212.039062 139.355469 211.5625 140.375 212.152344 L 168.710938 228.519531 C 169.730469 229.109375 171.398438 229.109375 172.414062 228.519531 L 247.640625 185.082031 C 248.652344 184.496094 250.320312 184.496094 251.339844 185.082031 L 279.6875 201.449219 C 280.707031 202.035156 281.539062 203.480469 281.539062 204.65625 L 281.539062 228.839844 C 281.539062 230.011719 280.710938 230.492188 279.6875 229.90625 L 251.347656 213.535156 C 250.332031 212.949219 248.667969 212.949219 247.652344 213.53125 L 172.421875 256.96875 C 171.40625 257.554688 169.742188 257.554688 168.722656 256.96875 Z M 226.6875 244.875 C 225.667969 244.289062 225.667969 243.328125 226.6875 242.742188 L 247.644531 230.636719 C 248.664062 230.054688 250.328125 230.054688 251.347656 230.640625 L 272.28125 242.734375 C 273.304688 243.320312 273.304688 244.285156 272.28125 244.875 L 251.335938 256.96875 C 250.316406 257.554688 248.652344 257.554688 247.636719 256.96875 Z M 226.6875 244.875 " fill-opacity="1" fill-rule="nonzero"/></svg>