<svg xmlns="http://www.w3.org/2000/svg" xmlns:xlink="http://www.w3.org/1999/xlink" width="500" zoomAndPan="magnify" viewBox="0 0 375 1199.999942" height="1600" preserveAspectRatio="xMidYMid meet" version="1.0"><defs><clipPath id="c5ddb95a1f"><path d="M 37.5 40.632812 L 337.5 40.632812 L 337.5 340.632812 L 37.5 340.632812 Z M 37.5 40.632812 " clip-rule="nonzero"/></clipPath><clipPath id="459def6f46"><path d="M 120.566406 342.894531 L 254.636719 342.894531 L 254.636719 470.484375 L 120.566406 470.484375 Z M 120.566406 342.894531 " clip-rule="nonzero"/></clipPath><clipPath id="8c2c971d9b"><path d="M 187.5 342.894531 L 203.300781 391.628906 L 254.433594 391.628906 L 213.066406 421.75 L 228.867188 470.484375 L 187.5 440.367188 L 146.132812 470.484375 L 161.933594 421.75 L 120.566406 391.628906 L 171.699219 391.628906 Z M 187.5 342.894531 " clip-rule="nonzero"/></clipPath><clipPath id="35e718d333"><path d="M 120.566406 491.484375 L 254.636719 491.484375 L 254.636719 619.074219 L 120.566406 619.074219 Z M 120.566406 491.484375 " clip-rule="nonzero"/></clipPath><clipPath id="4bf7ef8e87"><path d="M 187.5 491.484375 L 203.300781 540.21875 L 254.433594 540.21875 L 213.066406 570.339844 L 228.867188 619.074219 L 187.5 588.953125 L 146.132812 619.074219 L 161.933594 570.339844 L 120.566406 540.21875 L 171.699219 540.21875 Z M 187.5 491.484375 " clip-rule="nonzero"/></clipPath><clipPath id="1accb0dcc1"><path d="M 120.566406 640.074219 L 254.636719 640.074219 L 254.636719 767.664062 L 120.566406 767.664062 Z M 120.566406 640.074219 " clip-rule="nonzero"/></clipPath><clipPath id="d693d053a1"><path d="M 187.5 640.074219 L 203.300781 688.808594 L 254.433594 688.808594 L 213.066406 718.929688 L 228.867188 767.664062 L 187.5 737.542969 L 146.132812 767.664062 L 161.933594 718.929688 L 120.566406 688.808594 L 171.699219 688.808594 Z M 187.5 640.074219 " clip-rule="nonzero"/></clipPath><clipPath id="0c4a09a0ec"><path d="M 120.566406 788.664062 L 254.636719 788.664062 L 254.636719 916.253906 L 120.566406 916.253906 Z M 120.566406 788.664062 " clip-rule="nonzero"/></clipPath><clipPath id="68906206a2"><path d="M 187.5 788.664062 L 203.300781 837.398438 L 254.433594 837.398438 L 213.066406 867.519531 L 228.867188 916.253906 L 187.5 886.132812 L 146.132812 916.253906 L 161.933594 867.519531 L 120.566406 837.398438 L 171.699219 837.398438 Z M 187.5 788.664062 " clip-rule="nonzero"/></clipPath><clipPath id="22832ea786"><path d="M 120.566406 937.253906 L 254.636719 937.253906 L 254.636719 1064.84375 L 120.566406 1064.84375 Z M 120.566406 937.253906 " clip-rule="nonzero"/></clipPath><clipPath id="974689ac74"><path d="M 187.5 937.253906 L 203.300781 985.988281 L 254.433594 985.988281 L 213.066406 1016.109375 L 228.867188 1064.84375 L 187.5 1034.722656 L 146.132812 1064.84375 L 161.933594 1016.109375 L 120.566406 985.988281 L 171.699219 985.988281 Z M 187.5 937.253906 " clip-rule="nonzero"/></clipPath></defs><rect x="-37.5" width="450" fill="#ffffff" y="-119.999994" height="1439.999931" fill-opacity="1"/><rect x="-37.5" width="450" fill="#1dbf73" y="-119.999994" height="1439.999931" fill-opacity="1"/><g clip-path="url(#c5ddb95a1f)"><path fill="#1dbf73" d="M 337.5 190.632812 C 337.5 193.085938 337.441406 195.539062 337.320312 197.992188 C 337.199219 200.445312 337.019531 202.890625 336.777344 205.335938 C 336.535156 207.777344 336.238281 210.214844 335.875 212.640625 C 335.515625 215.070312 335.097656 217.488281 334.617188 219.894531 C 334.140625 222.304688 333.601562 224.699219 333.003906 227.078125 C 332.40625 229.460938 331.753906 231.828125 331.042969 234.175781 C 330.328125 236.523438 329.558594 238.855469 328.730469 241.167969 C 327.90625 243.476562 327.019531 245.765625 326.082031 248.035156 C 325.140625 250.304688 324.148438 252.546875 323.097656 254.765625 C 322.046875 256.984375 320.945312 259.175781 319.789062 261.34375 C 318.632812 263.507812 317.421875 265.640625 316.160156 267.75 C 314.898438 269.855469 313.585938 271.925781 312.21875 273.96875 C 310.855469 276.007812 309.445312 278.015625 307.980469 279.988281 C 306.519531 281.960938 305.007812 283.894531 303.453125 285.792969 C 301.894531 287.6875 300.292969 289.546875 298.644531 291.367188 C 296.992188 293.183594 295.300781 294.964844 293.566406 296.699219 C 291.832031 298.433594 290.054688 300.125 288.234375 301.777344 C 286.414062 303.425781 284.554688 305.027344 282.660156 306.585938 C 280.761719 308.140625 278.828125 309.652344 276.855469 311.113281 C 274.882812 312.578125 272.875 313.988281 270.835938 315.351562 C 268.792969 316.71875 266.722656 318.03125 264.617188 319.292969 C 262.507812 320.554688 260.375 321.765625 258.210938 322.921875 C 256.042969 324.078125 253.851562 325.179688 251.632812 326.230469 C 249.414062 327.28125 247.171875 328.273438 244.902344 329.214844 C 242.632812 330.152344 240.34375 331.039062 238.035156 331.863281 C 235.722656 332.691406 233.390625 333.460938 231.042969 334.171875 C 228.695312 334.886719 226.328125 335.539062 223.945312 336.136719 C 221.566406 336.734375 219.171875 337.273438 216.761719 337.75 C 214.355469 338.230469 211.9375 338.648438 209.507812 339.007812 C 207.082031 339.371094 204.644531 339.667969 202.203125 339.910156 C 199.757812 340.152344 197.3125 340.332031 194.859375 340.453125 C 192.410156 340.574219 189.953125 340.632812 187.5 340.632812 C 185.046875 340.632812 182.589844 340.574219 180.140625 340.453125 C 177.6875 340.332031 175.242188 340.152344 172.796875 339.910156 C 170.355469 339.667969 167.917969 339.371094 165.492188 339.007812 C 163.0625 338.648438 160.644531 338.230469 158.238281 337.75 C 155.828125 337.273438 153.433594 336.734375 151.054688 336.136719 C 148.671875 335.539062 146.304688 334.886719 143.957031 334.171875 C 141.609375 333.460938 139.277344 332.691406 136.964844 331.863281 C 134.65625 331.039062 132.367188 330.152344 130.097656 329.214844 C 127.828125 328.273438 125.585938 327.28125 123.367188 326.230469 C 121.148438 325.179688 118.957031 324.078125 116.789062 322.921875 C 114.625 321.765625 112.488281 320.554688 110.382812 319.292969 C 108.277344 318.03125 106.207031 316.71875 104.164062 315.351562 C 102.125 313.988281 100.117188 312.578125 98.144531 311.113281 C 96.171875 309.652344 94.238281 308.140625 92.339844 306.585938 C 90.445312 305.027344 88.585938 303.425781 86.765625 301.777344 C 84.945312 300.125 83.167969 298.433594 81.433594 296.699219 C 79.699219 294.964844 78.007812 293.183594 76.355469 291.367188 C 74.707031 289.546875 73.105469 287.6875 71.546875 285.792969 C 69.992188 283.894531 68.480469 281.960938 67.019531 279.988281 C 65.554688 278.015625 64.144531 276.007812 62.78125 273.96875 C 61.414062 271.925781 60.101562 269.855469 58.839844 267.75 C 57.578125 265.640625 56.367188 263.507812 55.210938 261.34375 C 54.054688 259.175781 52.953125 256.984375 51.902344 254.765625 C 50.851562 252.546875 49.859375 250.304688 48.917969 248.035156 C 47.980469 245.765625 47.09375 243.476562 46.269531 241.167969 C 45.441406 238.855469 44.671875 236.523438 43.957031 234.175781 C 43.246094 231.828125 42.59375 229.460938 41.996094 227.078125 C 41.398438 224.699219 40.859375 222.304688 40.382812 219.894531 C 39.902344 217.488281 39.484375 215.070312 39.125 212.640625 C 38.761719 210.214844 38.464844 207.777344 38.222656 205.335938 C 37.980469 202.890625 37.800781 200.445312 37.679688 197.992188 C 37.558594 195.539062 37.5 193.085938 37.5 190.632812 C 37.5 188.179688 37.558594 185.722656 37.679688 183.273438 C 37.800781 180.820312 37.980469 178.375 38.222656 175.929688 C 38.464844 173.488281 38.761719 171.050781 39.125 168.625 C 39.484375 166.195312 39.902344 163.777344 40.382812 161.371094 C 40.859375 158.960938 41.398438 156.566406 41.996094 154.1875 C 42.59375 151.804688 43.246094 149.4375 43.957031 147.089844 C 44.671875 144.742188 45.441406 142.410156 46.269531 140.097656 C 47.09375 137.789062 47.980469 135.5 48.917969 133.230469 C 49.859375 130.960938 50.851562 128.71875 51.902344 126.5 C 52.953125 124.28125 54.054688 122.089844 55.210938 119.921875 C 56.367188 117.757812 57.578125 115.621094 58.839844 113.515625 C 60.101562 111.410156 61.414062 109.339844 62.78125 107.296875 C 64.144531 105.257812 65.554688 103.25 67.019531 101.277344 C 68.480469 99.304688 69.992188 97.371094 71.546875 95.472656 C 73.105469 93.574219 74.707031 91.71875 76.355469 89.898438 C 78.007812 88.078125 79.699219 86.300781 81.433594 84.566406 C 83.167969 82.832031 84.945312 81.140625 86.765625 79.488281 C 88.585938 77.839844 90.445312 76.238281 92.339844 74.679688 C 94.238281 73.125 96.171875 71.613281 98.144531 70.152344 C 100.117188 68.6875 102.125 67.277344 104.164062 65.914062 C 106.207031 64.546875 108.277344 63.234375 110.382812 61.972656 C 112.488281 60.710938 114.625 59.5 116.789062 58.34375 C 118.957031 57.1875 121.148438 56.082031 123.367188 55.035156 C 125.585938 53.984375 127.828125 52.992188 130.097656 52.050781 C 132.367188 51.113281 134.65625 50.226562 136.964844 49.402344 C 139.277344 48.574219 141.609375 47.804688 143.957031 47.089844 C 146.304688 46.378906 148.671875 45.722656 151.054688 45.128906 C 153.433594 44.53125 155.828125 43.992188 158.238281 43.515625 C 160.644531 43.035156 163.0625 42.617188 165.492188 42.257812 C 167.917969 41.894531 170.355469 41.59375 172.796875 41.355469 C 175.242188 41.113281 177.6875 40.933594 180.140625 40.8125 C 182.589844 40.691406 185.046875 40.632812 187.5 40.632812 C 189.953125 40.632812 192.410156 40.691406 194.859375 40.8125 C 197.3125 40.933594 199.757812 41.113281 202.203125 41.355469 C 204.644531 41.59375 207.082031 41.894531 209.507812 42.257812 C 211.9375 42.617188 214.355469 43.035156 216.761719 43.515625 C 219.171875 43.992188 221.566406 44.53125 223.945312 45.128906 C 226.328125 45.722656 228.695312 46.378906 231.042969 47.089844 C 233.390625 47.804688 235.722656 48.574219 238.035156 49.402344 C 240.34375 50.226562 242.632812 51.113281 244.902344 52.050781 C 247.171875 52.992188 249.414062 53.984375 251.632812 55.035156 C 253.851562 56.082031 256.042969 57.1875 258.210938 58.34375 C 260.375 59.5 262.507812 60.710938 264.617188 61.972656 C 266.722656 63.234375 268.792969 64.546875 270.835938 65.914062 C 272.875 67.277344 274.882812 68.6875 276.855469 70.152344 C 278.828125 71.613281 280.761719 73.125 282.660156 74.679688 C 284.554688 76.238281 286.414062 77.839844 288.234375 79.488281 C 290.054688 81.140625 291.832031 82.832031 293.566406 84.566406 C 295.300781 86.300781 296.992188 88.078125 298.644531 89.898438 C 300.292969 91.71875 301.894531 93.574219 303.453125 95.472656 C 305.007812 97.371094 306.519531 99.304688 307.980469 101.277344 C 309.445312 103.25 310.855469 105.257812 312.21875 107.296875 C 313.585938 109.339844 314.898438 111.410156 316.160156 113.515625 C 317.421875 115.621094 318.632812 117.757812 319.789062 119.921875 C 320.945312 122.089844 322.046875 124.28125 323.097656 126.5 C 324.148438 128.71875 325.140625 130.960938 326.082031 133.230469 C 327.019531 135.5 327.90625 137.789062 328.730469 140.097656 C 329.558594 142.410156 330.328125 144.742188 331.042969 147.089844 C 331.753906 149.4375 332.40625 151.804688 333.003906 154.1875 C 333.601562 156.566406 334.140625 158.960938 334.617188 161.371094 C 335.097656 163.777344 335.515625 166.195312 335.875 168.625 C 336.238281 171.050781 336.535156 173.488281 336.777344 175.929688 C 337.019531 178.375 337.199219 180.820312 337.320312 183.273438 C 337.441406 185.722656 337.5 188.179688 337.5 190.632812 Z M 337.5 190.632812 " fill-opacity="1" fill-rule="nonzero"/></g><path fill="#ffffff" d="M 239.957031 136.410156 C 239.957031 136.929688 239.929688 137.449219 239.878906 137.964844 C 239.828125 138.484375 239.753906 138.996094 239.652344 139.507812 C 239.550781 140.015625 239.425781 140.519531 239.273438 141.015625 C 239.121094 141.515625 238.949219 142.003906 238.75 142.484375 C 238.550781 142.960938 238.328125 143.433594 238.082031 143.890625 C 237.839844 144.347656 237.570312 144.792969 237.28125 145.226562 C 236.992188 145.65625 236.683594 146.074219 236.355469 146.476562 C 236.023438 146.878906 235.675781 147.261719 235.308594 147.628906 C 234.941406 147.996094 234.558594 148.347656 234.15625 148.675781 C 233.753906 149.007812 233.335938 149.316406 232.90625 149.605469 C 232.472656 149.890625 232.027344 150.160156 231.570312 150.40625 C 231.109375 150.648438 230.640625 150.871094 230.160156 151.070312 C 229.679688 151.269531 229.191406 151.445312 228.695312 151.59375 C 228.199219 151.746094 227.695312 151.871094 227.183594 151.972656 C 226.675781 152.074219 226.160156 152.152344 225.644531 152.203125 C 225.128906 152.253906 224.609375 152.277344 224.089844 152.277344 C 223.570312 152.277344 223.050781 152.253906 222.535156 152.203125 C 222.015625 152.152344 221.503906 152.074219 220.992188 151.972656 C 220.484375 151.871094 219.980469 151.746094 219.484375 151.59375 C 218.984375 151.445312 218.496094 151.269531 218.015625 151.070312 C 217.535156 150.871094 217.066406 150.648438 216.609375 150.40625 C 216.152344 150.160156 215.707031 149.890625 215.273438 149.605469 C 214.839844 149.316406 214.425781 149.007812 214.023438 148.675781 C 213.621094 148.347656 213.238281 147.996094 212.867188 147.628906 C 212.5 147.261719 212.152344 146.878906 211.824219 146.476562 C 211.492188 146.074219 211.183594 145.65625 210.894531 145.226562 C 210.605469 144.792969 210.339844 144.347656 210.09375 143.890625 C 209.851562 143.433594 209.628906 142.960938 209.429688 142.484375 C 209.230469 142.003906 209.054688 141.515625 208.90625 141.015625 C 208.753906 140.519531 208.628906 140.015625 208.527344 139.507812 C 208.425781 138.996094 208.347656 138.484375 208.296875 137.964844 C 208.246094 137.449219 208.222656 136.929688 208.222656 136.410156 C 208.222656 135.890625 208.246094 135.371094 208.296875 134.855469 C 208.347656 134.339844 208.425781 133.824219 208.527344 133.316406 C 208.628906 132.804688 208.753906 132.300781 208.90625 131.804688 C 209.054688 131.308594 209.230469 130.820312 209.429688 130.339844 C 209.628906 129.859375 209.851562 129.390625 210.09375 128.929688 C 210.339844 128.472656 210.605469 128.027344 210.894531 127.59375 C 211.183594 127.164062 211.492188 126.746094 211.824219 126.34375 C 212.152344 125.941406 212.5 125.558594 212.867188 125.191406 C 213.238281 124.824219 213.621094 124.472656 214.023438 124.144531 C 214.425781 123.816406 214.839844 123.507812 215.273438 123.21875 C 215.707031 122.929688 216.152344 122.660156 216.609375 122.417969 C 217.066406 122.171875 217.535156 121.949219 218.015625 121.75 C 218.496094 121.550781 218.984375 121.378906 219.484375 121.226562 C 219.980469 121.074219 220.484375 120.949219 220.992188 120.847656 C 221.503906 120.746094 222.015625 120.671875 222.535156 120.621094 C 223.050781 120.570312 223.570312 120.542969 224.089844 120.542969 C 224.609375 120.542969 225.128906 120.570312 225.644531 120.621094 C 226.160156 120.671875 226.675781 120.746094 227.183594 120.847656 C 227.695312 120.949219 228.199219 121.074219 228.695312 121.226562 C 229.191406 121.378906 229.679688 121.550781 230.160156 121.75 C 230.640625 121.949219 231.109375 122.171875 231.570312 122.417969 C 232.027344 122.660156 232.472656 122.929688 232.90625 123.21875 C 233.335938 123.507812 233.753906 123.816406 234.15625 124.144531 C 234.558594 124.472656 234.941406 124.824219 235.308594 125.191406 C 235.675781 125.558594 236.023438 125.941406 236.355469 126.34375 C 236.683594 126.746094 236.992188 127.164062 237.28125 127.59375 C 237.570312 128.027344 237.839844 128.472656 238.082031 128.929688 C 238.328125 129.390625 238.550781 129.859375 238.75 130.339844 C 238.949219 130.820312 239.121094 131.308594 239.273438 131.804688 C 239.425781 132.300781 239.550781 132.804688 239.652344 133.316406 C 239.753906 133.824219 239.828125 134.339844 239.878906 134.855469 C 239.929688 135.371094 239.957031 135.890625 239.957031 136.410156 Z M 239.957031 136.410156 " fill-opacity="1" fill-rule="nonzero"/><path fill="#ffffff" d="M 240.664062 162.683594 L 168.03125 162.683594 L 168.03125 157.921875 C 168.03125 148.574219 177.378906 148.398438 182.136719 148.398438 C 187.601562 148.398438 190.074219 148.929688 190.074219 148.929688 L 190.074219 123.183594 C 186.210938 122.699219 182.332031 122.46875 178.433594 122.480469 C 163.269531 122.480469 135.230469 126.707031 135.230469 158.804688 L 135.230469 162.882812 L 122.003906 162.882812 L 122.003906 186.6875 L 135.230469 186.6875 L 135.230469 236.941406 L 122.890625 236.941406 L 122.890625 260.746094 L 182.480469 260.746094 L 182.480469 236.917969 L 168.019531 236.917969 L 168.019531 186.664062 L 207.671875 186.664062 L 207.671875 236.917969 L 195.347656 236.917969 L 195.347656 260.722656 L 253.011719 260.722656 L 253.011719 236.917969 L 240.664062 236.917969 Z M 240.664062 162.683594 " fill-opacity="1" fill-rule="nonzero"/><g clip-path="url(#459def6f46)"><g clip-path="url(#8c2c971d9b)"><path fill="#ffde59" d="M 120.566406 342.894531 L 254.636719 342.894531 L 254.636719 470.484375 L 120.566406 470.484375 Z M 120.566406 342.894531 " fill-opacity="1" fill-rule="nonzero"/></g></g><g clip-path="url(#35e718d333)"><g clip-path="url(#4bf7ef8e87)"><path fill="#ffde59" d="M 120.566406 491.484375 L 254.636719 491.484375 L 254.636719 619.074219 L 120.566406 619.074219 Z M 120.566406 491.484375 " fill-opacity="1" fill-rule="nonzero"/></g></g><g clip-path="url(#1accb0dcc1)"><g clip-path="url(#d693d053a1)"><path fill="#ffde59" d="M 120.566406 640.074219 L 254.636719 640.074219 L 254.636719 767.664062 L 120.566406 767.664062 Z M 120.566406 640.074219 " fill-opacity="1" fill-rule="nonzero"/></g></g><g clip-path="url(#0c4a09a0ec)"><g clip-path="url(#68906206a2)"><path fill="#ffde59" d="M 120.566406 788.664062 L 254.636719 788.664062 L 254.636719 916.253906 L 120.566406 916.253906 Z M 120.566406 788.664062 " fill-opacity="1" fill-rule="nonzero"/></g></g><g clip-path="url(#22832ea786)"><g clip-path="url(#974689ac74)"><path fill="#ffde59" d="M 120.566406 937.253906 L 254.636719 937.253906 L 254.636719 1064.84375 L 120.566406 1064.84375 Z M 120.566406 937.253906 " fill-opacity="1" fill-rule="nonzero"/></g></g></svg>