<svg xmlns="http://www.w3.org/2000/svg" xmlns:xlink="http://www.w3.org/1999/xlink" width="1500" zoomAndPan="magnify" viewBox="0 0 1125 374.999991" height="500" preserveAspectRatio="xMidYMid meet" version="1.0"><defs><g/><clipPath id="700728f109"><path d="M 22.070312 25.035156 L 348.230469 25.035156 L 348.230469 351.195312 L 22.070312 351.195312 Z M 22.070312 25.035156 " clip-rule="nonzero"/></clipPath></defs><g fill="#040404" fill-opacity="1"><g transform="translate(402.51189, 238.261522)"><g><path d="M 29.21875 0 L 10.203125 0 L 10.203125 -93.703125 L 29.21875 -93.703125 L 29.21875 -52.5 L 41.890625 -53.875 L 57.328125 -93.703125 L 78.953125 -93.703125 L 58.5625 -46.71875 L 79.515625 0 L 57.59375 0 L 41.890625 -37.34375 L 29.21875 -35.96875 Z M 29.21875 0 "/></g></g></g><g fill="#040404" fill-opacity="1"><g transform="translate(484.223041, 238.261522)"><g><path d="M 8.546875 0 L 8.546875 -68.90625 L 26.875 -68.90625 L 26.875 -61.59375 C 34.59375 -66.1875 41.941406 -69.171875 48.921875 -70.546875 L 48.921875 -51.953125 C 41.472656 -50.390625 35.085938 -48.78125 29.765625 -47.125 L 27.015625 -46.15625 L 27.015625 0 Z M 8.546875 0 "/></g></g></g><g fill="#040404" fill-opacity="1"><g transform="translate(535.481977, 238.261522)"><g><path d="M 61.3125 -47.40625 L 61.3125 -18.734375 C 61.5 -16.535156 61.867188 -15 62.421875 -14.125 C 62.972656 -13.25 64.117188 -12.628906 65.859375 -12.265625 L 65.3125 1.65625 C 60.625 1.65625 56.878906 1.332031 54.078125 0.6875 C 51.273438 0.0390625 48.453125 -1.242188 45.609375 -3.171875 C 38.992188 0.046875 32.242188 1.65625 25.359375 1.65625 C 11.117188 1.65625 4 -5.875 4 -20.9375 C 4 -28.289062 5.972656 -33.503906 9.921875 -36.578125 C 13.867188 -39.660156 19.929688 -41.476562 28.109375 -42.03125 L 42.859375 -43.125 L 42.859375 -47.40625 C 42.859375 -50.25 42.210938 -52.195312 40.921875 -53.25 C 39.640625 -54.3125 37.570312 -54.84375 34.71875 -54.84375 L 8.8125 -53.734375 L 8.265625 -66.5625 C 18.097656 -69.21875 27.445312 -70.546875 36.3125 -70.546875 C 45.175781 -70.546875 51.554688 -68.707031 55.453125 -65.03125 C 59.359375 -61.363281 61.3125 -55.488281 61.3125 -47.40625 Z M 30.3125 -29.21875 C 25.164062 -28.757812 22.59375 -26 22.59375 -20.9375 C 22.59375 -15.882812 24.84375 -13.359375 29.34375 -13.359375 C 32.84375 -13.359375 36.65625 -13.910156 40.78125 -15.015625 L 42.859375 -15.578125 L 42.859375 -30.3125 Z M 30.3125 -29.21875 "/></g></g></g><g fill="#040404" fill-opacity="1"><g transform="translate(605.894104, 238.261522)"><g><path d="M 30.3125 -53.1875 L 30.3125 0 L 11.84375 0 L 11.84375 -53.1875 L 4.40625 -53.1875 L 4.40625 -68.90625 L 11.84375 -68.90625 L 11.84375 -71.9375 C 11.84375 -81.851562 13.3125 -88.691406 16.25 -92.453125 C 19.195312 -96.222656 24.4375 -98.109375 31.96875 -98.109375 C 35.269531 -98.109375 39.539062 -97.648438 44.78125 -96.734375 L 47.671875 -96.3125 L 47.40625 -81.296875 C 43.363281 -81.484375 39.960938 -81.578125 37.203125 -81.578125 C 34.453125 -81.578125 32.613281 -80.84375 31.6875 -79.375 C 30.769531 -77.90625 30.3125 -75.378906 30.3125 -71.796875 L 30.3125 -68.90625 L 46.984375 -68.90625 L 46.984375 -53.1875 Z M 30.3125 -53.1875 "/></g></g></g><g fill="#040404" fill-opacity="1"><g transform="translate(655.086145, 238.261522)"><g><path d="M 46.71875 -53.1875 L 29.765625 -53.1875 L 29.765625 -24.9375 C 29.765625 -22.1875 29.832031 -20.234375 29.96875 -19.078125 C 30.101562 -17.929688 30.609375 -16.941406 31.484375 -16.109375 C 32.359375 -15.285156 33.710938 -14.875 35.546875 -14.875 L 46.03125 -15.15625 L 46.84375 -0.40625 C 40.695312 0.96875 36.015625 1.65625 32.796875 1.65625 C 24.523438 1.65625 18.875 -0.203125 15.84375 -3.921875 C 12.8125 -7.648438 11.296875 -14.519531 11.296875 -24.53125 L 11.296875 -53.1875 L 3.171875 -53.1875 L 3.171875 -68.90625 L 11.296875 -68.90625 L 11.296875 -88.046875 L 29.765625 -88.046875 L 29.765625 -68.90625 L 46.71875 -68.90625 Z M 46.71875 -53.1875 "/></g></g></g><g fill="#040404" fill-opacity="1"><g transform="translate(705.242736, 238.261522)"><g><path d="M 2.203125 -68.90625 L 20.390625 -68.90625 L 32.9375 -15.703125 L 36.109375 -15.703125 L 48.640625 -68.90625 L 66.828125 -68.90625 L 42.578125 28.9375 L 24.53125 28.9375 L 32.109375 0 L 19.15625 0 Z M 2.203125 -68.90625 "/></g></g></g><g fill="#040404" fill-opacity="1"><g transform="translate(774.156909, 238.261522)"><g><path d="M 4.140625 -95.359375 L 15.15625 -95.359375 L 31.421875 -9.375 L 35.40625 -9.375 L 54.84375 -94.53125 L 67.25 -94.53125 L 86.671875 -9.375 L 90.671875 -9.375 L 106.9375 -95.359375 L 117.8125 -95.359375 L 98.53125 0 L 79.09375 0 L 61.046875 -81.4375 L 43 0 L 23.5625 0 Z M 4.140625 -95.359375 "/></g></g></g><g fill="#040404" fill-opacity="1"><g transform="translate(896.241339, 238.261522)"><g><path d="M 11.71875 0 L 11.71875 -95.359375 L 69.71875 -95.359375 L 69.71875 -85.984375 L 22.328125 -85.984375 L 22.328125 -53.046875 L 61.453125 -53.046875 L 61.453125 -43.8125 L 22.328125 -43.8125 L 22.328125 -9.375 L 69.71875 -9.375 L 69.71875 0 Z M 11.71875 0 "/></g></g></g><g fill="#040404" fill-opacity="1"><g transform="translate(972.440763, 238.261522)"><g><path d="M 11.71875 -95.359375 L 46.296875 -95.359375 C 55.765625 -95.359375 62.863281 -93.40625 67.59375 -89.5 C 72.320312 -85.59375 74.6875 -79.460938 74.6875 -71.109375 C 74.6875 -65.128906 73.648438 -60.460938 71.578125 -57.109375 C 69.515625 -53.765625 66.460938 -51.125 62.421875 -49.1875 C 72.523438 -45.695312 77.578125 -38.210938 77.578125 -26.734375 C 77.578125 -17.179688 75.050781 -10.335938 70 -6.203125 C 64.945312 -2.066406 57.644531 0 48.09375 0 L 11.71875 0 Z M 46.984375 -43.8125 L 22.328125 -43.8125 L 22.328125 -9.375 L 47.671875 -9.375 C 53.921875 -9.375 58.675781 -10.679688 61.9375 -13.296875 C 65.195312 -15.910156 66.828125 -20.523438 66.828125 -27.140625 C 66.828125 -30.628906 66.160156 -33.566406 64.828125 -35.953125 C 63.492188 -38.347656 61.726562 -40.050781 59.53125 -41.0625 C 55.488281 -42.894531 51.304688 -43.8125 46.984375 -43.8125 Z M 45.890625 -85.984375 L 22.328125 -85.984375 L 22.328125 -53.046875 L 46.84375 -53.046875 C 52.726562 -53.046875 57.023438 -54.445312 59.734375 -57.25 C 62.441406 -60.050781 63.796875 -64.273438 63.796875 -69.921875 C 63.796875 -75.578125 62.347656 -79.664062 59.453125 -82.1875 C 56.566406 -84.71875 52.046875 -85.984375 45.890625 -85.984375 Z M 45.890625 -85.984375 "/></g></g></g><path fill="#000000" d="M 289.621094 83.636719 C 261.722656 55.734375 224.5625 40.382812 185.085938 40.382812 C 145.609375 40.382812 108.570312 55.734375 80.671875 83.636719 C 52.769531 111.535156 37.417969 148.699219 37.417969 188.175781 C 37.417969 227.648438 52.769531 264.808594 80.671875 292.710938 C 108.570312 320.609375 145.734375 335.960938 185.210938 335.960938 C 224.683594 335.960938 261.84375 320.609375 289.746094 292.710938 C 317.644531 264.808594 332.996094 227.648438 332.996094 188.175781 C 332.996094 148.699219 317.523438 111.535156 289.621094 83.636719 Z M 289.621094 83.636719 " fill-opacity="1" fill-rule="nonzero"/><g clip-path="url(#700728f109)"><path fill="#000000" d="M 185.085938 25.035156 C 95.046875 25.035156 22.070312 98.011719 22.070312 188.050781 C 22.070312 278.089844 95.046875 351.070312 185.085938 351.070312 C 275.125 351.070312 348.105469 278.089844 348.105469 188.050781 C 348.105469 98.011719 275.246094 25.035156 185.085938 25.035156 Z M 185.085938 341.933594 C 100.164062 341.933594 31.207031 273.09375 31.207031 188.050781 C 31.207031 103.011719 100.164062 34.292969 185.085938 34.292969 C 270.007812 34.292969 338.96875 103.132812 338.96875 188.175781 C 338.96875 273.21875 270.128906 341.933594 185.085938 341.933594 Z M 185.085938 341.933594 " fill-opacity="1" fill-rule="nonzero"/></g><path fill="#fffdfa" d="M 249.820312 174.4375 C 248.898438 173.90625 248.136719 172.59375 248.136719 171.527344 L 248.136719 134.117188 C 248.136719 133.058594 247.386719 131.75 246.46875 131.21875 L 207.359375 108.640625 C 206.441406 108.109375 204.933594 108.109375 204.007812 108.640625 L 171.613281 127.34375 C 170.695312 127.875 169.183594 127.875 168.265625 127.34375 L 135.863281 108.640625 C 134.949219 108.113281 133.4375 108.113281 132.511719 108.640625 L 93.40625 131.21875 C 92.488281 131.75 91.730469 133.058594 91.730469 134.117188 L 91.730469 179.277344 C 91.730469 180.34375 92.484375 181.652344 93.40625 182.183594 L 125.804688 200.886719 C 126.730469 201.414062 127.488281 202.722656 127.488281 203.789062 L 127.488281 241.191406 C 127.488281 242.253906 128.238281 243.5625 129.160156 244.09375 L 168.265625 266.675781 C 169.1875 267.207031 170.695312 267.207031 171.617188 266.675781 L 204.015625 247.96875 C 204.9375 247.441406 206.445312 247.441406 207.367188 247.96875 L 239.765625 266.675781 C 240.679688 267.207031 242.191406 267.207031 243.117188 266.675781 L 282.214844 244.09375 C 283.140625 243.5625 283.894531 242.253906 283.894531 241.191406 L 283.894531 196.042969 C 283.894531 194.976562 283.140625 193.667969 282.214844 193.136719 Z M 207.367188 189.265625 C 206.445312 189.796875 204.9375 189.796875 204.015625 189.265625 L 185.039062 178.308594 C 184.125 177.777344 184.125 176.902344 185.039062 176.371094 L 204.023438 165.40625 C 204.945312 164.875 206.449219 164.875 207.375 165.40625 L 226.34375 176.367188 C 227.261719 176.902344 227.261719 177.773438 226.34375 178.304688 Z M 168.265625 186.050781 C 169.1875 185.519531 170.695312 185.519531 171.617188 186.058594 L 190.59375 197.007812 C 191.511719 197.542969 191.511719 198.414062 190.59375 198.945312 L 171.605469 209.90625 C 170.6875 210.4375 169.175781 210.4375 168.25 209.90625 L 149.289062 198.949219 C 148.363281 198.417969 148.363281 197.546875 149.289062 197.011719 Z M 132.515625 124.140625 C 133.4375 123.609375 134.953125 123.609375 135.863281 124.140625 L 154.84375 135.09375 C 155.761719 135.621094 155.761719 136.496094 154.84375 137.027344 L 135.859375 147.988281 C 134.941406 148.519531 133.429688 148.519531 132.507812 147.988281 L 113.539062 137.03125 C 112.621094 136.5 112.621094 135.625 113.539062 135.097656 Z M 105.152344 149.625 C 105.152344 148.558594 105.90625 148.121094 106.832031 148.65625 L 132.503906 163.484375 C 133.429688 164.019531 134.9375 164.019531 135.855469 163.488281 L 204.007812 124.140625 C 204.9375 123.609375 206.445312 123.609375 207.359375 124.140625 L 233.054688 138.96875 C 233.96875 139.496094 234.722656 140.804688 234.722656 141.871094 L 234.722656 163.777344 C 234.722656 164.839844 233.972656 165.277344 233.054688 164.742188 L 207.375 149.910156 C 206.449219 149.378906 204.945312 149.378906 204.023438 149.90625 L 135.863281 189.265625 C 134.953125 189.796875 133.4375 189.796875 132.515625 189.265625 L 106.832031 174.4375 C 105.910156 173.90625 105.152344 172.59375 105.152344 171.53125 Z M 142.582031 236.351562 C 141.660156 235.820312 140.90625 234.515625 140.90625 233.445312 L 140.90625 211.539062 C 140.90625 210.472656 141.65625 210.042969 142.582031 210.578125 L 168.253906 225.40625 C 169.175781 225.941406 170.6875 225.941406 171.609375 225.40625 L 239.765625 186.050781 C 240.679688 185.519531 242.191406 185.519531 243.117188 186.050781 L 268.796875 200.878906 C 269.722656 201.410156 270.476562 202.71875 270.476562 203.785156 L 270.476562 225.695312 C 270.476562 226.757812 269.726562 227.191406 268.796875 226.660156 L 243.121094 211.828125 C 242.203125 211.296875 240.695312 211.296875 239.773438 211.824219 L 171.617188 251.179688 C 170.695312 251.710938 169.1875 251.710938 168.265625 251.179688 Z M 220.78125 240.222656 C 219.855469 239.691406 219.855469 238.820312 220.78125 238.292969 L 239.769531 227.324219 C 240.691406 226.796875 242.199219 226.796875 243.121094 227.328125 L 262.089844 238.285156 C 263.015625 238.816406 263.015625 239.6875 262.089844 240.222656 L 243.113281 251.179688 C 242.1875 251.710938 240.679688 251.710938 239.761719 251.179688 Z M 220.78125 240.222656 " fill-opacity="1" fill-rule="nonzero"/></svg>